<svg width="30" height="30"  viewBox="0 0 32 21" fill="none" xmlns="http://www.w3.org/2000/svg">
<path d="M31 3.93578L27.7857 13.4771H8.5L4.21429 1H1" stroke="white" stroke-width="4" stroke-linecap="round" stroke-linejoin="round"/>
<path viewBox="" d="M22.8575 21C24.0409 21 25.0003 20.3428 25.0003 19.5321C25.0003 18.7214 24.0409 18.0642 22.8575 18.0642C21.674 18.0642 20.7146 18.7214 20.7146 19.5321C20.7146 20.3428 21.674 21 22.8575 21Z" fill="white"/>
<path viewBox="" d="M12.1431 21C13.3266 21 14.286 20.3428 14.286 19.5321C14.286 18.7214 13.3266 18.0642 12.1431 18.0642C10.9596 18.0642 10.0002 18.7214 10.0002 19.5321C10.0002 20.3428 10.9596 21 12.1431 21Z" fill="white"/>
</svg>
